<svg xmlns="http://www.w3.org/2000/svg" viewBox="0 0 202.11 106.91"><defs><style>.cls-1{fill:#eb3b5a;}.cls-2{fill:#111515;}</style></defs><g id="Camada_2" data-name="Camada 2"><g id="Camada_1-2" data-name="Camada 1"><path class="cls-1" d="M5.38,90.92l6.14-9.33C17.09,86.06,22.75,89,29.18,89c7.76,0,11.47-3.78,11.47-10.18C40.65,63.12,8.33,65.28,8.33,43c0-12.9,9.16-21.37,23-21.37,9.81,0,16.14,4.09,21.35,9.61l-7,8c-4.38-4.09-8-6.38-13.71-6.38-6.5,0-10.38,3.43-10.38,9.52,0,14.29,32.32,11.43,32.32,35.56,0,13.19-9,22.33-24.7,22.33A37.78,37.78,0,0,1,5.38,90.92ZM26,10h9.43V26.18H26Zm0,84.92h9.43v17H26Z" transform="translate(-5.38 -9.95)"/><path class="cls-1" d="M65,100.44c0-8.52,1.09-13.81,1.09-21.57,0-4.42-2.33-8.9-10.23-9V61.55c7.9-.15,10.23-4.62,10.23-8.95,0-7.86-1.09-13.14-1.09-21.66,0-12.62,4.57-16.42,14.56-16.42H86V22H83.32c-5.69,0-7.23,2.43-7.23,9.57,0,6.78.57,12.8.57,20.47,0,8.37-2.4,12-8,13.42v.48c5.6,1.42,8,5.14,8,13.42,0,7.66-.57,13.68-.57,20.47,0,7.14,1.54,9.57,7.23,9.57H86v7.47H79.56C69.57,116.86,65,113.05,65,100.44Z" transform="translate(-5.38 -9.95)"/><path class="cls-2" d="M90.22,40.32h11.24l1,8h.39c5-5.17,10.61-9.4,17.94-9.4,8.57,0,13.45,3.9,16.14,10.47,5.59-6,11.37-10.47,18.8-10.47,12.33,0,18,8.47,18,23.23V98.77H160.1V63.88c0-9.62-2.85-13.23-9-13.23-3.72,0-7.72,2.38-12.24,7.28V98.77H125.16V63.88c0-9.62-2.85-13.23-9-13.23-3.62,0-7.72,2.38-12.24,7.28V98.77H90.22Z" transform="translate(-5.38 -9.95)"/><path class="cls-1" d="M177.35,109.39H180c5.69,0,7.23-2.43,7.23-9.57,0-6.79-.57-12.81-.57-20.47,0-8.28,2.41-12,8-13.42v-.48c-5.59-1.43-8-5.05-8-13.42,0-7.67.57-13.69.57-20.47,0-7.14-1.54-9.57-7.23-9.57h-2.67V14.52h6.43c10,0,14.57,3.8,14.57,16.42,0,8.52-1.1,13.8-1.1,21.66,0,4.33,2.33,8.8,10.24,8.95v8.28c-7.91.14-10.24,4.62-10.24,9,0,7.76,1.1,13,1.1,21.57,0,12.61-4.57,16.42-14.57,16.42h-6.43Z" transform="translate(-5.38 -9.95)"/></g></g></svg>